<svg width="32" height="32" viewBox="0 0 32 32" fill="none" xmlns="http://www.w3.org/2000/svg">
<path d="M11.4332 22.6566H27.0629C27.5846 22.6566 28.04 22.228 28.04 21.652C28.04 21.076 27.5846 20.6474 27.0629 20.6474H11.6606C10.8972 20.6474 10.4286 20.1114 10.308 19.2949L10.0937 17.8886H27.0892C29.0446 17.8886 30.0492 16.6829 30.3303 14.768L31.4017 7.68286C31.4302 7.51461 31.4481 7.34476 31.4554 7.17429C31.4554 6.53143 30.9732 6.08915 30.2366 6.08915H8.3663L8.11144 4.38858C7.97773 3.35715 7.60287 2.83429 6.23716 2.83429H1.53544C1.00001 2.83429 0.544586 3.304 0.544586 3.84C0.544586 4.38858 1.00001 4.85772 1.53601 4.85772H6.0623L8.20516 19.5629C8.48687 21.4646 9.49087 22.6566 11.4332 22.6566ZM29.1783 8.11143L28.2286 14.5269C28.1212 15.3571 27.6794 15.8663 26.8892 15.8663L9.80002 15.8794L8.66116 8.11143H29.1783ZM12.4914 29.1657C12.777 29.1681 13.0602 29.1136 13.3245 29.0054C13.5889 28.8972 13.829 28.7374 14.0309 28.5355C14.2329 28.3335 14.3926 28.0934 14.5008 27.8291C14.609 27.5648 14.6635 27.2816 14.6612 26.996C14.6624 26.7107 14.6071 26.428 14.4985 26.1643C14.3899 25.9005 14.2301 25.6608 14.0284 25.4591C13.8266 25.2574 13.587 25.0976 13.3232 24.989C13.0594 24.8804 12.7767 24.8251 12.4914 24.8263C11.2732 24.8263 10.3086 25.7909 10.3086 26.996C10.3086 28.2149 11.2732 29.1657 12.4914 29.1657ZM25.0137 29.1657C26.2326 29.1657 27.1966 28.2149 27.1966 26.996C27.1966 25.7903 26.2326 24.8263 25.0137 24.8263C23.8086 24.8263 22.8309 25.7909 22.8309 26.996C22.8309 28.2149 23.8086 29.1657 25.0137 29.1657Z" fill="white"/>
</svg>
