<svg width="66" height="66" viewBox="0 0 66 66" fill="none" xmlns="http://www.w3.org/2000/svg">
<mask id="mask0_39_317" style="mask-type:luminance" maskUnits="userSpaceOnUse" x="11" y="10" width="44" height="45">
<path d="M53.9 28.6001H33.4V37.1001H45.2C44.1 42.5001 39.5 45.6001 33.4 45.6001C26.2 45.6001 20.4 39.8001 20.4 32.6001C20.4 25.4001 26.2 19.6001 33.4 19.6001C36.5 19.6001 39.3 20.7001 41.5 22.5001L47.9 16.1001C44 12.7001 39 10.6001 33.4 10.6001C21.2 10.6001 11.4 20.4001 11.4 32.6001C11.4 44.8001 21.2 54.6001 33.4 54.6001C44.4 54.6001 54.4 46.6001 54.4 32.6001C54.4 31.3001 54.2 29.9001 53.9 28.6001Z" fill="white"/>
</mask>
<g mask="url(#mask0_39_317)">
<path d="M9.40002 45.6001V19.6001L26.4 32.6001L9.40002 45.6001Z" fill="#FBBC05"/>
</g>
<mask id="mask1_39_317" style="mask-type:luminance" maskUnits="userSpaceOnUse" x="11" y="10" width="44" height="45">
<path d="M53.9 28.6001H33.4V37.1001H45.2C44.1 42.5001 39.5 45.6001 33.4 45.6001C26.2 45.6001 20.4 39.8001 20.4 32.6001C20.4 25.4001 26.2 19.6001 33.4 19.6001C36.5 19.6001 39.3 20.7001 41.5 22.5001L47.9 16.1001C44 12.7001 39 10.6001 33.4 10.6001C21.2 10.6001 11.4 20.4001 11.4 32.6001C11.4 44.8001 21.2 54.6001 33.4 54.6001C44.4 54.6001 54.4 46.6001 54.4 32.6001C54.4 31.3001 54.2 29.9001 53.9 28.6001Z" fill="white"/>
</mask>
<g mask="url(#mask1_39_317)">
<path d="M9.40002 19.6001L26.4 32.6001L33.4 26.5001L57.4 22.6001V8.6001H9.40002V19.6001Z" fill="#EA4335"/>
</g>
<mask id="mask2_39_317" style="mask-type:luminance" maskUnits="userSpaceOnUse" x="11" y="10" width="44" height="45">
<path d="M53.9 28.6001H33.4V37.1001H45.2C44.1 42.5001 39.5 45.6001 33.4 45.6001C26.2 45.6001 20.4 39.8001 20.4 32.6001C20.4 25.4001 26.2 19.6001 33.4 19.6001C36.5 19.6001 39.3 20.7001 41.5 22.5001L47.9 16.1001C44 12.7001 39 10.6001 33.4 10.6001C21.2 10.6001 11.4 20.4001 11.4 32.6001C11.4 44.8001 21.2 54.6001 33.4 54.6001C44.4 54.6001 54.4 46.6001 54.4 32.6001C54.4 31.3001 54.2 29.9001 53.9 28.6001Z" fill="white"/>
</mask>
<g mask="url(#mask2_39_317)">
<path d="M9.40002 45.6001L39.4 22.6001L47.3 23.6001L57.4 8.6001V56.6001H9.40002V45.6001Z" fill="#34A853"/>
</g>
<mask id="mask3_39_317" style="mask-type:luminance" maskUnits="userSpaceOnUse" x="11" y="10" width="44" height="45">
<path d="M53.9 28.6001H33.4V37.1001H45.2C44.1 42.5001 39.5 45.6001 33.4 45.6001C26.2 45.6001 20.4 39.8001 20.4 32.6001C20.4 25.4001 26.2 19.6001 33.4 19.6001C36.5 19.6001 39.3 20.7001 41.5 22.5001L47.9 16.1001C44 12.7001 39 10.6001 33.4 10.6001C21.2 10.6001 11.4 20.4001 11.4 32.6001C11.4 44.8001 21.2 54.6001 33.4 54.6001C44.4 54.6001 54.4 46.6001 54.4 32.6001C54.4 31.3001 54.2 29.9001 53.9 28.6001Z" fill="white"/>
</mask>
<g mask="url(#mask3_39_317)">
<path d="M57.4 56.6001L26.4 32.6001L22.4 29.6001L57.4 19.6001V56.6001Z" fill="#4285F4"/>
</g>
</svg>
